HIERARCHY
ROOT Hips
{
	OFFSET -0.001795 -0.223333 0.028219
	CHANNELS 6 Xposition Yposition Zposition Zrotation Yrotation Xrotation 
	JOINT LeftUpLeg
	{
		OFFSET 0.069520 -0.091406 -0.006815
		CHANNELS 3 Zrotation Yrotation Xrotation
		JOINT LeftLeg
		{
			OFFSET 0.034277 -0.375199 -0.004496
			CHANNELS 3 Zrotation Yrotation Xrotation
			JOINT LeftFoot
			{
				OFFSET -0.013596 -0.397961 -0.043693
				CHANNELS 3 Zrotation Yrotation Xrotation
				JOINT LeftToe
				{
					OFFSET 0.026358 -0.055791 0.119288
					CHANNELS 3 Zrotation Yrotation Xrotation
					End Site
					{
						OFFSET 0.000000 0.000000 0.000000
					}
				}
			}
		}
	}
	JOINT RightUpLeg
	{
		OFFSET -0.067670 -0.090522 -0.004320
		CHANNELS 3 Zrotation Yrotation Xrotation
		JOINT RightLeg
		{
			OFFSET -0.038290 -0.382569 -0.008850
			CHANNELS 3 Zrotation Yrotation Xrotation
			JOINT RightFoot
			{
				OFFSET 0.015774 -0.398415 -0.042312
				CHANNELS 3 Zrotation Yrotation Xrotation
				JOINT RightToe
				{
					OFFSET -0.025372 -0.048144 0.123348
					CHANNELS 3 Zrotation Yrotation Xrotation
					End Site
					{
						OFFSET 0.000000 0.000000 0.000000
					}
				}
			}
		}
	}
	JOINT Spine
	{
		OFFSET -0.002533 0.108963 -0.026696
		CHANNELS 3 Zrotation Yrotation Xrotation
		JOINT Spine1
		{
			OFFSET 0.005487 0.135180 0.001092
			CHANNELS 3 Zrotation Yrotation Xrotation
			JOINT Spine2
			{
				OFFSET 0.001457 0.052922 0.025425
				CHANNELS 3 Zrotation Yrotation Xrotation
				JOINT Neck
				{
					OFFSET -0.002778 0.213870 -0.042857
					CHANNELS 3 Zrotation Yrotation Xrotation
					JOINT Head
					{
						OFFSET 0.005152 0.064970 0.051349
						CHANNELS 3 Zrotation Yrotation Xrotation
						End Site
						{
							OFFSET 0.000000 0.000000 0.000000
						}
					}
				}
				JOINT LeftShoulder
				{
					OFFSET 0.078845 0.121749 -0.034090
					CHANNELS 3 Zrotation Yrotation Xrotation
					JOINT LeftArm
					{
						OFFSET 0.090977 0.030469 -0.008868
						CHANNELS 3 Zrotation Yrotation Xrotation
						JOINT LeftForeArm
						{
							OFFSET 0.259612 -0.012772 -0.027456
							CHANNELS 3 Zrotation Yrotation Xrotation
							JOINT LeftHand
							{
								OFFSET 0.249234 0.008986 -0.001171
								CHANNELS 3 Zrotation Yrotation Xrotation
								End Site
								{
									OFFSET 0.000000 0.000000 0.000000
								}
							}
						}
					}
				}
				JOINT RightShoulder
				{
					OFFSET -0.081759 0.118833 -0.038615
					CHANNELS 3 Zrotation Yrotation Xrotation
					JOINT RightArm
					{
						OFFSET -0.096012 0.032551 -0.009143
						CHANNELS 3 Zrotation Yrotation Xrotation
						JOINT RightForeArm
						{
							OFFSET -0.253742 -0.013329 -0.021401
							CHANNELS 3 Zrotation Yrotation Xrotation
							JOINT RightHand
							{
								OFFSET -0.255298 0.007772 -0.005559
								CHANNELS 3 Zrotation Yrotation Xrotation
								End Site
								{
									OFFSET 0.000000 0.000000 0.000000
								}
							}
						}
					}
				}
			}
		}
	}
}
MOTION
Frames: 14
Frame Time: 0.050000
0.049969 0.944126 -0.082025 3.343150 -22.598286 15.986291 5.898365 0.327105 -24.532099 -3.140220 1.191945 15.121095 2.054752 4.812633 7.149514 0.000000 0.000000 0.000000 -11.964193 3.060032 -32.351474 -4.273548 2.215208 16.360111 4.981388 4.281212 9.130209 0.000000 0.000000 0.000000 9.472049 -1.848069 15.943626 3.930424 -1.522043 -1.619929 -10.695345 4.121797 6.084898 16.718078 -12.440098 -3.921208 0.000000 0.000000 0.000000 21.408453 -13.138866 2.726878 -79.553559 -45.471502 30.343606 141.306396 -27.640679 -57.691694 0.000000 0.000000 0.000000 -19.511665 -0.746096 2.411881 91.120534 41.070326 26.028440 -141.758819 42.909641 -88.096389 0.000000 0.000000 0.000000 
0.046644 0.947655 -0.079900 2.584107 -23.412094 15.626740 6.140258 0.317501 -22.654126 -1.959829 0.813167 14.015051 1.984269 4.610023 7.324730 0.000000 0.000000 0.000000 -10.750611 3.202986 -31.463857 -5.147540 2.213898 14.951766 6.820383 6.105603 11.551890 0.000000 0.000000 0.000000 9.398438 -1.734131 14.783449 4.756992 -1.852716 -1.941235 -10.557734 -0.971220 6.557263 15.106835 -11.450655 -2.469770 0.000000 0.000000 0.000000 23.534125 -12.898645 1.635419 -79.662281 -45.376680 33.736142 138.524955 -22.296706 -41.380174 0.000000 0.000000 0.000000 -18.109272 -3.032242 2.840242 89.853843 38.032687 18.260780 -149.692667 46.668533 -108.860463 0.000000 0.000000 0.000000 
0.043717 0.951330 -0.077270 1.908897 -24.551244 15.962601 6.413841 0.353948 -21.116531 -1.322596 0.604163 12.769605 4.416236 8.907035 9.300738 0.000000 0.000000 0.000000 -9.854160 3.382441 -31.024110 -5.940538 2.181792 13.571157 8.565657 8.332207 13.067362 0.000000 0.000000 0.000000 9.339126 -1.616014 13.285296 4.783477 -1.853691 -3.284577 -10.285342 -3.473971 7.785599 13.251231 -10.320046 -0.874296 0.000000 0.000000 0.000000 25.049329 -11.445360 0.595326 -80.876917 -45.591781 37.046280 136.567526 -18.469062 -30.368004 0.000000 0.000000 0.000000 -17.554506 -5.639313 2.859591 88.739986 33.870019 11.290096 -155.435635 47.262386 -121.119671 0.000000 0.000000 0.000000 
0.041324 0.952879 -0.075306 2.080576 -23.892185 15.983019 6.342354 0.222004 -20.166314 -1.135904 0.466812 11.612138 6.462065 12.388661 12.078689 0.000000 0.000000 0.000000 -10.268090 3.161125 -30.275137 -5.665616 1.986167 12.747677 8.793767 8.790213 13.192928 0.000000 0.000000 0.000000 9.494166 -1.578908 12.012348 4.804101 -1.859853 -3.137641 -10.374490 -4.805739 7.159449 13.478944 -10.619000 0.917818 0.000000 0.000000 0.000000 25.172300 -10.849040 0.414999 -81.198471 -45.909055 38.195031 135.931253 -17.790340 -28.509665 0.000000 0.000000 0.000000 -18.428330 -7.849582 2.863920 88.695145 31.031507 7.942354 -158.185700 46.021764 -124.828869 0.000000 0.000000 0.000000 
0.040267 0.952593 -0.074947 2.203456 -23.327062 16.044962 6.599968 0.189794 -19.515244 -0.533317 0.251058 10.580494 7.447741 13.867038 14.862798 0.000000 0.000000 0.000000 -10.321357 3.018380 -29.657194 -5.859808 1.924571 12.145485 8.574742 9.078040 12.436064 0.000000 0.000000 0.000000 10.039964 -1.646181 11.762359 4.441314 -1.722658 -3.803387 -10.669969 -3.567620 7.001158 15.091320 -12.013728 1.414642 0.000000 0.000000 0.000000 23.799314 -10.418563 0.727061 -80.860308 -46.027760 37.008862 137.044847 -20.009964 -34.381968 0.000000 0.000000 0.000000 -18.264341 -8.529420 2.436658 88.266410 31.030906 8.999108 -154.797690 44.241249 -115.387073 0.000000 0.000000 0.000000 
0.040749 0.950033 -0.076473 2.851778 -23.231378 16.058483 6.504535 0.182828 -19.791014 -1.038111 0.394447 11.069601 8.831744 15.841400 17.386074 0.000000 0.000000 0.000000 -11.552618 3.016915 -30.955807 -5.299502 2.019637 13.518850 8.623261 9.339945 12.447072 0.000000 0.000000 0.000000 10.576163 -1.717564 11.820685 3.913739 -1.522983 -4.316592 -11.141338 -0.247473 6.893585 17.430487 -13.651780 -0.603559 0.000000 0.000000 0.000000 21.439469 -9.517355 1.270752 -80.166070 -44.175551 32.595471 139.354417 -22.384661 -42.589493 0.000000 0.000000 0.000000 -18.180599 -8.216244 1.877577 87.958184 32.886929 13.022172 -149.931073 41.734205 -101.670850 0.000000 0.000000 0.000000 
0.042323 0.946439 -0.078768 3.203004 -22.891480 15.931346 7.076882 0.297820 -20.012234 -2.330054 0.752077 11.712209 8.754117 15.782490 17.482695 0.000000 0.000000 0.000000 -12.870486 2.938211 -32.077177 -3.736205 1.926619 15.173916 8.032381 8.636888 11.996648 0.000000 0.000000 0.000000 10.711348 -1.780909 12.352125 3.712298 -1.446246 -4.349960 -11.386327 2.050483 6.852566 19.402448 -14.577064 -3.462447 0.000000 0.000000 0.000000 19.061973 -9.898568 1.878515 -81.876464 -43.218000 30.950852 141.952011 -26.249811 -54.421587 0.000000 0.000000 0.000000 -17.898759 -6.569265 1.656476 89.433803 36.571619 18.779686 -146.557735 41.038557 -93.792601 0.000000 0.000000 0.000000 
0.044013 0.946216 -0.080573 2.727781 -24.831869 16.020748 7.701726 0.497739 -19.201589 -3.312520 1.051572 11.272443 9.224494 16.146553 18.336816 0.000000 0.000000 0.000000 -12.059270 3.387790 -33.082943 -4.449514 2.143398 15.338133 9.106076 9.540989 13.323197 0.000000 0.000000 0.000000 10.709694 -1.788687 13.170015 3.438719 -1.341014 -3.985165 -11.403935 4.662387 6.271514 19.863823 -14.700000 -4.408627 0.000000 0.000000 0.000000 19.282435 -9.200556 1.962019 -85.054111 -40.628913 29.284158 145.821708 -27.980427 -64.284674 0.000000 0.000000 0.000000 -18.439272 -5.203696 1.709301 91.713978 38.973839 23.243675 -144.813429 41.137729 -90.423216 0.000000 0.000000 0.000000 
0.045343 0.948222 -0.081207 2.424928 -27.193526 16.582277 7.364330 0.527821 -18.613197 -3.146427 1.020240 10.355260 10.382047 17.455702 18.944586 0.000000 0.000000 0.000000 -11.627643 3.859172 -33.993279 -4.904611 2.221406 14.968440 10.014262 10.587284 13.991292 0.000000 0.000000 0.000000 10.767655 -1.708674 12.641194 3.278084 -1.247942 -3.058983 -11.672857 4.256767 5.975699 19.749819 -14.060833 -6.165157 0.000000 0.000000 0.000000 21.011068 -8.879878 1.571314 -85.923266 -38.374468 28.670468 147.129120 -26.776684 -63.384395 0.000000 0.000000 0.000000 -18.576307 -4.687590 2.110349 91.874385 41.039150 24.234876 -147.145237 41.047979 -94.706272 0.000000 0.000000 0.000000 
0.046474 0.950936 -0.080858 1.513037 -29.344442 17.178273 7.072274 0.516563 -17.708179 -2.607906 0.885368 9.536803 12.492577 20.368831 18.794029 0.000000 0.000000 0.000000 -10.327976 4.308083 -34.094494 -5.791023 2.270370 13.974872 11.133340 11.936191 14.722107 0.000000 0.000000 0.000000 11.037830 -1.686129 12.581272 3.536219 -1.359728 -4.094681 -11.015694 1.288933 6.859977 18.336981 -12.612154 -8.003229 0.000000 0.000000 0.000000 22.044508 -9.193259 0.834588 -86.125519 -36.117231 29.527138 147.097343 -24.936449 -57.446002 0.000000 0.000000 0.000000 -18.983149 -4.718014 2.981551 92.596794 42.801005 22.688401 -150.227438 42.601352 -103.587246 0.000000 0.000000 0.000000 
0.047955 0.952720 -0.081081 0.705310 -32.211497 17.067291 6.422705 0.438531 -16.360700 -1.942589 0.793100 9.443912 14.507449 23.019103 19.130985 0.000000 0.000000 0.000000 -9.039683 4.657504 -33.482669 -6.626510 2.325566 13.138193 12.204896 14.159459 14.442597 0.000000 0.000000 0.000000 11.585756 -1.673770 13.032279 3.781868 -1.461479 -4.600054 -10.848750 -1.160848 7.575075 16.543776 -11.255611 -9.304478 0.000000 0.000000 0.000000 23.709366 -9.483122 0.048115 -86.284317 -37.103197 33.398791 143.441612 -23.038603 -46.844602 0.000000 0.000000 0.000000 -20.051780 -5.470338 3.819882 91.774573 42.034898 18.012232 -151.885108 43.407947 -108.526789 0.000000 0.000000 0.000000 
0.050053 0.951051 -0.082642 0.245989 -33.126070 17.095687 6.267567 0.428853 -16.152681 -1.460705 0.744827 10.092024 14.889110 23.602728 18.841672 0.000000 0.000000 0.000000 -9.088726 4.813606 -33.893257 -6.464795 2.390906 13.624928 12.936319 15.951372 14.372206 0.000000 0.000000 0.000000 12.344478 -1.731329 13.263806 4.189033 -1.611678 -4.909169 -10.636733 -3.677497 7.922721 15.259981 -10.230055 -10.990270 0.000000 0.000000 0.000000 25.177736 -10.453080 -0.406290 -86.809641 -38.911594 37.637153 139.842553 -20.831929 -37.305945 0.000000 0.000000 0.000000 -20.967387 -5.305112 4.625124 91.265479 43.492834 16.696968 -150.453598 44.752436 -108.511338 0.000000 0.000000 0.000000 
0.052774 0.947082 -0.085552 0.257931 -34.402059 16.897638 6.490290 0.512904 -16.074726 -1.964881 0.992670 10.906520 15.008525 24.006503 17.911390 0.000000 0.000000 0.000000 -9.153463 5.100315 -34.816358 -7.125800 2.704931 14.433945 13.794229 18.178833 14.295257 0.000000 0.000000 0.000000 12.194977 -1.728170 14.349578 4.721622 -1.800926 -5.473130 -10.464747 -4.159153 8.391229 14.368943 -9.666459 -11.718385 0.000000 0.000000 0.000000 25.135143 -9.590037 -0.771129 -85.924358 -39.076841 38.050357 140.500731 -19.672226 -34.645753 0.000000 0.000000 0.000000 -20.835860 -6.198395 4.661729 90.377054 43.891847 15.869794 -148.085957 45.516287 -105.794841 0.000000 0.000000 0.000000 
0.055591 0.944532 -0.089167 0.323916 -36.101569 16.707246 6.828237 0.717177 -16.525591 -2.349026 1.327980 12.380971 14.462675 22.845611 18.248509 0.000000 0.000000 0.000000 -9.123645 5.430140 -35.497800 -7.317920 2.762680 14.411568 14.445089 18.972333 14.832960 0.000000 0.000000 0.000000 12.553566 -1.747796 15.732902 4.933304 -1.865009 -5.249988 -10.247712 -2.137887 7.976309 15.229041 -10.103950 -11.948997 0.000000 0.000000 0.000000 23.652192 -9.175274 -0.434790 -82.959369 -39.437778 35.358497 139.848489 -19.918784 -34.681217 0.000000 0.000000 0.000000 -21.292203 -6.552051 4.518089 88.969817 44.515880 16.993146 -144.037093 44.410117 -97.825638 0.000000 0.000000 0.000000 
